<?xml version="1.0" encoding="UTF-8"?>
<svg width="20px" height="20px" viewBox="0 0 1024 1024" xmlns="http://www.w3.org/2000/svg" xmlns:xlink="http://www.w3.org/1999/xlink" version="1.1">
 <!-- Generated by Pixelmator Pro 1.6.1 -->
 <g id="group">
  <path id="Path" d="M472.053 12.648 C469.716 12.894 462.215 13.755 455.451 14.37 359.286 24.453 264.596 65.158 187.369 129.842 173.104 141.647 140.639 174.112 128.834 188.377 64.888 264.743 27.504 350.456 13.731 451.909 10.656 474.413 10.656 550.411 13.731 572.915 27.504 674.368 64.888 760.08 128.834 836.447 140.639 850.712 173.104 883.177 187.369 894.982 263.736 958.928 349.448 996.312 450.901 1010.085 473.405 1013.16 549.403 1013.16 571.907 1010.085 673.36 996.312 759.073 958.928 835.439 894.982 849.704 883.177 882.169 850.712 893.974 836.447 957.92 760.08 995.304 674.368 1009.077 572.915 1012.152 550.411 1012.152 474.413 1009.077 451.909 995.304 350.456 957.92 264.743 893.974 188.377 882.169 174.112 849.704 141.647 835.439 129.842 759.318 66.141 672.745 28.266 572.645 14.862 561.823 13.386 546.083 12.771 516.938 12.525 494.68 12.279 474.389 12.402 472.053 12.648 Z M478.201 65.773 C478.201 80.16 479.185 111.396 480.538 141.032 481.276 155.543 482.136 176.326 482.505 187.147 483.858 225.515 487.916 326.23 488.531 335.207 L489.146 344.184 483.612 343.569 C480.538 343.323 477.709 342.586 477.217 342.217 476.849 341.725 475.988 333.24 475.496 323.279 473.282 279.5 466.027 109.674 465.289 84.833 L464.551 57.533 467.994 57.041 C469.839 56.795 472.913 56.427 474.881 56.304 L478.201 56.181 Z M595.887 62.821 C596.01 62.944 596.379 100.082 596.748 145.336 597.24 190.714 597.854 231.418 598.223 235.845 598.592 240.395 598.469 244.33 597.854 244.576 597.362 244.945 594.288 244.945 591.214 244.576 L585.557 244.084 584.696 208.299 C584.204 188.5 583.589 166.611 583.344 159.478 582.36 137.712 581.499 63.805 582.237 61.96 582.729 60.608 584.081 60.485 589.246 61.345 592.812 62.083 595.764 62.698 595.887 62.821 Z M311.449 104.017 C312.187 105.124 317.967 172.882 325.099 261.546 327.436 291.675 329.772 319.221 330.141 322.664 330.756 328.936 330.633 329.182 326.698 331.641 324.484 332.994 322.271 334.1 321.779 334.1 321.41 334.1 320.672 330.903 320.303 326.968 318.582 310.981 311.941 233.754 307.268 177.924 304.563 145.09 302.103 115.7 301.734 112.502 301.12 107.092 301.243 106.6 304.44 104.878 308.375 102.788 310.589 102.419 311.449 104.017 Z M649.995 128.735 C653.438 129.965 653.807 130.58 654.545 137.589 655.775 149.886 655.406 208.668 654.053 208.668 650.487 208.668 643.109 204.487 642.494 202.15 642.125 200.674 641.756 183.212 641.756 163.413 641.756 123.447 641.264 125.784 649.995 128.735 Z M422.863 134.515 C422.863 137.835 423.724 156.158 424.708 175.465 425.692 194.772 426.798 219.243 427.29 229.819 428.151 251.216 428.397 250.479 420.158 250.97 416.1 251.093 416.1 251.093 415.854 244.945 415.608 241.501 414.993 230.803 414.255 220.965 413.64 211.127 412.165 189.853 411.181 173.62 410.197 157.388 408.967 141.278 408.598 137.835 407.861 131.686 407.983 131.44 411.304 130.211 413.271 129.473 416.715 128.858 418.928 128.858 422.863 128.735 422.863 128.735 422.863 134.515 Z M763.991 151.362 L768.172 153.084 769.033 169.562 C769.402 178.539 769.648 197.969 769.402 212.603 L769.033 239.411 763.868 236.829 758.704 234.369 758.335 193.542 C758.089 171.038 758.212 151.977 758.458 151.116 758.949 149.271 758.949 149.271 763.991 151.362 Z M539.442 167.471 C540.18 168.209 541.901 227.851 542.024 258.103 L542.147 276.303 536.368 275.442 C533.047 275.073 530.342 274.704 530.219 274.581 529.85 274.335 526.161 183.212 526.161 174.358 L526.161 165.258 532.433 165.996 C535.999 166.488 539.073 167.103 539.442 167.471 Z M822.65 176.203 C824.125 177.924 824.371 204.855 824.74 353.407 825.109 523.971 825.109 528.398 822.896 528.398 821.543 528.398 819.698 527.661 818.592 526.8 816.747 525.447 816.501 510.567 815.886 364.844 815.394 276.549 814.779 196.37 814.411 186.655 L813.673 168.947 817.239 171.53 C819.329 173.005 821.666 175.096 822.65 176.203 Z M712.343 201.412 C712.957 201.904 713.572 208.914 713.695 216.907 714.31 244.084 714.433 410.713 713.818 411.205 713.572 411.451 711.359 410.836 708.899 409.852 L704.472 408.007 704.472 303.357 704.472 198.83 707.916 199.568 C709.76 200.059 711.728 200.797 712.343 201.412 Z M372.936 208.299 C373.305 211.619 373.92 219.12 374.289 225.269 374.658 231.295 375.518 245.068 376.256 255.766 377.732 277.41 377.486 278.762 370.477 278.762 366.787 278.762 366.295 278.393 365.804 274.704 364.574 267.449 360.27 206.946 360.885 205.962 361.5 205.101 367.894 202.888 370.845 202.642 371.583 202.519 372.567 205.101 372.936 208.299 Z M169.538 239.657 C170.891 252.692 173.596 279.992 175.564 300.283 177.654 320.573 179.376 337.79 179.376 338.527 179.376 340.003 169.907 344.676 168.923 343.692 168.308 343.078 156.011 234.246 156.011 229.327 156.011 226.376 165.48 213.955 166.71 215.308 167.079 215.554 168.308 226.499 169.538 239.657 Z M651.717 252.569 L655.283 254.66 655.406 281.222 C655.529 295.733 655.775 311.965 655.775 317.253 656.021 328.321 654.668 330.165 648.028 327.829 L644.215 326.476 644.215 315.9 C644.215 309.998 643.846 292.904 643.354 277.779 L642.617 250.479 645.445 250.479 C646.921 250.479 649.749 251.462 651.717 252.569 Z M223.523 300.283 C225.737 323.894 229.303 363.737 231.64 388.824 L235.821 434.324 231.025 439.12 226.352 443.916 225.491 434.201 C224.999 428.79 222.54 403.703 219.957 378.371 217.375 353.038 213.685 316.269 211.841 296.717 L208.398 261.3 213.194 256.873 C217.498 252.815 217.99 252.692 218.85 254.906 219.342 256.135 221.433 276.549 223.523 300.283 Z M131.416 315.163 C134.122 339.388 141.254 403.826 147.403 458.304 153.551 512.781 159.331 565.29 160.438 575.128 161.422 584.966 163.143 599.846 164.127 608.331 165.849 622.719 165.849 623.703 163.881 625.178 160.93 627.392 159.7 627.146 159.7 624.564 159.7 623.457 158.593 614.111 157.241 604.027 155.027 587.18 151.338 558.65 143.099 494.581 141.377 481.669 138.057 455.967 135.72 437.398 133.261 418.829 129.695 391.16 127.727 375.911 125.76 360.663 122.439 334.592 120.349 317.745 118.135 301.021 116.782 286.141 117.151 284.542 118.012 281.222 125.268 269.662 126.005 270.4 126.251 270.769 128.711 290.814 131.416 315.163 Z M93.786 368.164 C95.631 382.921 99.074 409.852 101.411 428.175 103.747 446.375 106.699 469.125 108.051 478.594 L110.388 495.81 107.805 498.024 C106.33 499.254 104.854 499.746 104.362 499.254 103.87 498.762 102.886 493.843 102.149 488.432 101.411 483.021 96.861 451.417 91.942 418.337 L83.211 358.08 86.039 349.718 C87.515 345.168 89.113 341.479 89.482 341.479 89.974 341.479 91.819 353.53 93.786 368.164 Z M768.91 352.055 C770.632 353.776 770.878 361.401 770.878 417.845 L770.878 481.669 767.435 481.669 C759.933 481.669 760.056 483.513 759.564 413.664 L759.195 350.087 763.131 350.087 C765.221 350.087 767.927 350.948 768.91 352.055 Z M499.722 374.067 C527.514 378.248 551.739 385.995 575.719 398.293 591.214 406.286 598.592 411.82 615.809 428.298 641.387 452.77 657.128 474.167 671.884 504.419 693.405 548.443 701.767 587.426 712.343 691.953 717.139 738.806 723.41 823.781 724.763 858.582 725.132 868.666 725.993 885.267 726.731 895.474 728.083 917.117 729.682 914.166 710.621 923.389 684.182 936.178 658.726 945.032 625.154 953.271 584.081 963.355 557.519 966.553 516.938 966.676 L487.424 966.799 487.67 952.657 C487.67 944.909 488.408 926.832 489.146 912.69 492.835 844.194 492.097 757.744 487.301 709.784 484.596 682.238 479.308 648.789 476.357 641.411 475.742 639.812 478.57 638.46 490.745 634.278 513.003 626.531 532.31 616.816 535.261 612.02 540.549 602.92 531.08 589.885 519.028 589.885 516.938 589.885 510.666 592.099 504.887 594.681 477.34 607.347 422.125 622.227 390.275 625.547 368.263 627.884 334.076 626.531 310.343 622.227 297.43 619.891 274.311 611.16 255.005 601.199 232.746 589.639 219.096 574.267 215.038 556.067 212.825 546.23 213.44 526.554 216.268 515.486 219.342 503.312 227.95 485.604 235.821 475.274 270.868 429.159 343.176 389.193 417.329 375.174 440.94 370.747 474.389 370.255 499.722 374.067 Z M879.094 377.879 C883.522 379.724 884.013 380.216 884.013 384.397 884.259 417.968 883.522 494.704 882.907 497.901 882.784 499.008 876.389 499.131 873.684 498.147 871.962 497.532 871.716 490.892 871.716 436.66 871.716 397.801 872.208 375.911 872.946 375.911 873.561 375.911 876.389 376.772 879.094 377.879 Z M932.834 445.391 L937.261 447.236 936.4 549.058 C935.416 678.795 935.293 682.607 930.62 693.798 922.996 712.121 923.365 715.81 924.103 635.385 924.349 595.173 924.964 554.469 925.21 545 925.456 535.531 925.701 508.846 925.824 485.604 925.824 457.566 926.193 443.547 927.054 443.547 927.792 443.547 930.374 444.408 932.834 445.391 Z M193.272 476.012 C194.01 485.973 193.764 486.956 190.198 494.827 L186.262 503.189 184.787 490.892 C182.45 471.216 182.45 470.355 187.123 467.404 189.214 465.928 191.427 464.944 191.796 465.19 192.165 465.436 192.903 470.355 193.272 476.012 Z M117.274 550.165 C118.381 560.248 126.989 627.146 131.416 659.98 138.057 710.768 138.549 718.023 135.597 714.949 135.228 714.58 132.4 697.487 129.449 676.95 110.265 544.385 110.388 545.246 111.986 544.262 115.307 542.048 116.414 543.278 117.274 550.165 Z M205.815 606.487 C206.553 609.561 210.119 642.887 210.119 646.945 210.119 650.388 205.692 653.585 203.725 651.618 203.11 651.003 201.511 640.55 200.281 628.499 198.929 616.324 197.576 603.658 197.207 600.338 L196.469 594.189 200.773 599.108 C203.233 601.814 205.446 605.134 205.815 606.487 Z M305.055 652.848 C306.407 654.077 307.268 658.996 308.375 672.277 310.22 696.257 310.466 694.412 305.424 694.412 300.259 694.412 300.382 694.781 298.66 673.138 296.938 651.126 296.938 651.372 300.259 651.372 301.857 651.372 303.948 652.11 305.055 652.848 Z M402.45 654.692 C402.696 655.922 403.31 663.3 403.802 671.048 404.171 678.795 405.278 696.257 406.262 709.784 409.705 759.465 409.828 765.737 407.738 765.737 405.401 765.737 405.155 763.892 402.45 728.845 401.466 714.334 399.621 691.461 398.392 678.057 397.285 664.653 396.547 653.462 396.916 653.216 398.269 651.741 401.835 652.848 402.45 654.692 Z M171.26 678.303 C171.998 679.41 176.671 718.761 182.45 772.501 184.172 788.733 185.894 804.351 186.262 807.302 L186.877 812.59 183.803 810.622 C181.466 809.024 180.606 807.425 180.606 804.597 180.606 796.849 175.318 745.815 171.26 714.58 168.923 696.872 167.079 681.254 167.079 679.779 167.079 677.196 170.03 676.212 171.26 678.303 Z M880.939 729.706 L880.078 781.109 877.004 785.659 C869.995 795.989 870.363 797.956 870.732 740.405 L870.978 687.649 875.528 682.976 C877.988 680.517 880.447 678.426 880.939 678.426 881.308 678.426 881.308 701.545 880.939 729.706 Z M767.189 811.237 C767.804 882.685 767.681 888.219 765.713 890.432 764.483 891.785 763.377 892.646 763.008 892.277 762.147 891.293 760.917 735.486 761.901 734.625 762.393 734.133 763.623 733.887 764.729 734.01 766.328 734.379 766.697 743.11 767.189 811.237 Z M365.558 762.294 C366.418 769.918 369.493 806.441 370.723 823.657 371.46 835.217 371.46 835.586 368.755 836.447 367.279 836.939 365.558 836.816 365.066 836.201 364.205 835.34 361.5 808.04 358.179 765.983 L357.318 755.899 361.131 755.899 C364.697 755.899 364.943 756.145 365.558 762.294 Z M268.901 805.335 C269.761 806.195 270.376 809.27 270.376 812.344 270.376 815.541 271.852 832.143 273.451 849.359 278.124 896.458 278.492 902.852 276.402 901.623 273.205 899.778 270.376 896.95 270.991 896.212 271.237 895.72 270.745 889.571 269.761 882.562 268.901 875.429 267.794 863.87 267.302 856.737 266.81 849.605 265.703 836.57 264.719 827.839 262.383 806.318 262.506 803.859 265.211 803.859 266.441 803.859 268.04 804.474 268.901 805.335 Z M327.067 888.096 C327.436 890.801 328.174 900.885 328.666 910.477 329.526 928.923 329.158 930.275 324.116 926.463 322.64 925.357 321.656 920.684 320.18 906.665 317.598 881.332 317.475 882.316 322.271 882.808 325.837 883.177 326.329 883.669 327.067 888.096 Z" fill="#222222" fill-opacity="1" stroke="none"/>
  <path id="Path-1" d="M283.165 432.971 C270.376 438.505 269.392 455.844 281.444 461.993 290.175 466.42 299.029 464.329 303.579 456.705 312.187 442.686 298.168 426.453 283.165 432.971 Z" fill="#222222" fill-opacity="1" stroke="none"/>
  <path id="Path-2" d="M366.541 444.776 C354.736 452.032 354.736 469.494 366.541 476.75 378.224 483.759 393.35 474.536 393.35 460.517 393.35 446.99 377.855 437.89 366.541 444.776 Z" fill="#222222" fill-opacity="1" stroke="none"/>
 </g>
</svg>
