<?xml version="1.0" encoding="UTF-8"?>
<svg width="20px" height="20px" viewBox="0 0 1024 1024" xmlns="http://www.w3.org/2000/svg" xmlns:xlink="http://www.w3.org/1999/xlink" version="1.1">
 <!-- Generated by Pixelmator Pro 1.6.1 -->
 <g id="Page-1">
  <g id="polygons">
   <path id="Triangle" d="M213.559 679.961 L368.456 525.064 368.456 834.859 Z" fill="#109ed3" fill-opacity="1" stroke="none"/>
   <path id="Triangle-1" d="M368.456 525.064 L213.559 679.961 213.559 370.166 Z" fill="#10b0ec" fill-opacity="1" stroke="none"/>
   <path id="Triangle-2" d="M368.456 857.638 L213.559 1012.535 213.559 702.74 Z" fill="#1788b3" fill-opacity="1" stroke="none"/>
   <path id="Triangle-3" d="M500.575 1012.535 L345.677 857.638 655.472 857.638 Z" fill="#279d34" fill-opacity="1" stroke="none"/>
   <path id="Triangle-4" d="M345.677 857.638 L500.575 1012.535 190.78 1012.535 Z" fill="#32b240" fill-opacity="1" stroke="none"/>
   <path id="Triangle-5" d="M678.251 857.638 L833.149 1012.535 523.354 1012.535 Z" fill="#2a8735" fill-opacity="1" stroke="none"/>
   <path id="Triangle-6" d="M578.023 500.007 L732.921 345.109 732.921 654.904 Z" fill="#cb0806" fill-opacity="1" stroke="none"/>
   <path id="Triangle-7" d="M578.023 809.802 L732.921 654.904 732.921 964.699 Z" fill="#860404" fill-opacity="1" stroke="none"/>
   <path id="Triangle-8" d="M578.023 167.433 L732.921 12.535 732.921 322.33 Z" fill="#ff0000" fill-opacity="1" stroke="none"/>
   <path id="Triangle-9" d="M732.921 345.109 L578.023 500.007 578.023 190.212 Z" fill="#e10709" fill-opacity="1" stroke="none"/>
   <path id="Triangle-10" d="M732.921 654.904 L578.023 809.802 578.023 500.007 Z" fill="#a7080a" fill-opacity="1" stroke="none"/>
   <path id="Triangle-11" d="M523.354 370.166 L678.251 525.064 368.456 525.064 Z" fill="#d9ba06" fill-opacity="1" stroke="none"/>
   <path id="Triangle-12" d="M368.456 525.064 L213.559 370.166 523.354 370.166 Z" fill="#f4d002" fill-opacity="1" stroke="none"/>
  </g>
 </g>
</svg>
